<svg id="working-table" xmlns="http://www.w3.org/2000/svg" viewBox="0 0 457.07 406.29">
  <defs>
    <style>
      .cls-1 {
        fill: #ead48c;
      }

      .cls-1, .cls-10, .cls-11, .cls-12, .cls-13, .cls-14, .cls-15, .cls-16, .cls-3, .cls-4, .cls-6, .cls-7, .cls-8, .cls-9 {
        fill-rule: evenodd;
      }

      .cls-2, .cls-6 {
        fill: #fff;
      }

      .cls-17, .cls-3 {
        fill: #232446;
      }

      .cls-4 {
        fill: #3a3c6c;
      }

      .cls-5, .cls-8 {
        fill: #f1f2ff;
      }

      .cls-7 {
        fill: #cf4970;
      }

      .cls-9 {
        fill: #6f89db;
      }

      .cls-10 {
        fill: #ccceea;
      }

      .cls-11 {
        fill: #eec1b8;
      }

      .cls-12 {
        fill: #e8a092;
      }

      .cls-13 {
        fill: #eaab9f;
      }

      .cls-14 {
        fill: #eec16e;
      }

      .cls-15 {
        fill: #e69646;
      }

      .cls-16 {
        fill: #60629a;
      }
    </style>
  </defs>
  <g>
    <polygon id="light-of-lamp" class="cls-1" points="343.39 95.43 176.9 257.06 365.9 257.06 371.81 128.09 343.39 95.43"/>
    <circle id="bulb-of-lamp" class="cls-2" cx="357.6" cy="111.76" r="6.72"/>
    <polygon class="cls-3" points="368.15 88.63 380.08 78.16 391.29 89.11 380.64 100.77 371.81 128.09 343.39 95.43 368.15 88.63"/>
    <path class="cls-4" d="M397,262.73h53.34v-5.15a5.17,5.17,0,0,0-5.15-5.15h-43a5.17,5.17,0,0,0-5.16,5.15Z" transform="translate(-0.48 -7.77)"/>
    <path class="cls-3" d="M411.76,249.86h13.66l21.18-79a6,6,0,0,1-4.19-5.74,6,6,0,0,1,1.56-4l-58.75-58.76a3.61,3.61,0,0,1-2.3.84,3.55,3.55,0,1,1,2.72-1.26l58.75,58.76A6,6,0,1,1,447.17,171L426,249.86h6.66l-.32,2.57H411.43l.33-2.57Zm40.53-88.61a5.44,5.44,0,1,0,1.59,3.85A5.42,5.42,0,0,0,452.29,161.25Z" transform="translate(-0.48 -7.77)"/>
  </g>
  <g id="the-wall">
    <g>
      <g>
        <g>
          <circle class="cls-5" cx="56.3" cy="47.24" r="36.12" transform="translate(-17.38 32.82) rotate(-34.81)"/>
          <path class="cls-6" d="M20.29,44.44A36.14,36.14,0,0,1,53.44,11.23,30.67,30.67,0,1,1,20.29,44.44Z" transform="translate(-0.48 -7.77)"/>
        </g>
        <g>
          <path class="cls-3" d="M57,7.86a36.36,36.36,0,1,1-26.37,8.88A36.25,36.25,0,0,1,57,7.86Zm0,3.71-.47,0-.39,5.65.48,0L57,11.57Zm-23.74,7.8-.36.31L36.63,24l.36-.32-3.73-4.27ZM29.79,65.42l.31.36,4.27-3.73-.31-.36-4.27,3.73Zm46.05,3.47.36-.31-3.73-4.27-.36.31,3.73,4.27Zm3.47-46L79,22.48l-4.27,3.73.32.36,4.27-3.73ZM22,41.68l0,.47,5.66.39,0-.48L22,41.68Zm30.1,35,.48,0L53,71.07l-.47,0-.39,5.65Zm35-30.1,0-.48-5.66-.38,0,.47,5.66.39ZM81.58,20.54a35.9,35.9,0,1,0,8.76,26A35.72,35.72,0,0,0,81.58,20.54Z" transform="translate(-0.48 -7.77)"/>
          <path id="day-time" class="cls-7" d="M55.13,45.7a1.73,1.73,0,1,1,.49-2.87l11.26-5.9L67.44,38,56.17,43.88a1.76,1.76,0,0,1-.18,1L70.4,60.4l-.87.8Z" transform="translate(-0.48 -7.77)"/>
          <path id="night-time" class="cls-7" d="M55.24,42.55a1.73,1.73,0,1,1-2.42,1.62l-12-4.12.38-1.12,12,4.11a1.77,1.77,0,0,1,.85-.56L55.4,21.36l1.18.07Z" transform="translate(-0.48 -7.77)"/>
        </g>
      </g>
      <g>
        <path id="circle-3" class="cls-6" d="M3.21,47.05A2.73,2.73,0,1,0,.48,44.32,2.73,2.73,0,0,0,3.21,47.05Z" transform="translate(-0.48 -7.77)"/>
        <path id="circle-2" class="cls-8" d="M103.17,18.91a2.31,2.31,0,1,0-2.31-2.31A2.32,2.32,0,0,0,103.17,18.91Z" transform="translate(-0.48 -7.77)"/>
        <path id="circle-1" class="cls-6" d="M80.29,83.89a2,2,0,1,0-2-2A2,2,0,0,0,80.29,83.89Z" transform="translate(-0.48 -7.77)"/>
      </g>
    </g>
  </g>
  <g>
    <path id="table-shadow" class="cls-1" d="M232.42,339.39,255,411.69h-4l-10.74-27.61h0L239.8,383l-10.12-26-.33-.83-1.75-4.51-3.2-8.23c-9,3.63-20.38,5.88-33.62,5.89a66.72,66.72,0,0,1-13.59-1.36L174.83,354l-5,12.73-5.44,14h0l-.44,1.13-3.35,8.62-8.27,21.26h-4L169,345.63c-21.13-7.39-37-25.48-41.47-49.23v-.07h0c-.07-.36-.13-.72-.19-1.08a63.35,63.35,0,0,1-.94-11h-15.9L84.83,411.69H78.76L96.08,284.28H53.55v-4.2H42.45l.41-5.25H127.2c3-17,13.94-29.08,28.94-29.59,15.7-.54,31.3,11.75,39.84,29.59H441.23l-.42,5.25H429.16v4.2h-38.6l17.32,127.41H401.8L376.17,284.28H199.66a67.94,67.94,0,0,1,1.73,6.92c24.75,4.44,45.32,14.39,44.57,29.9C245.64,327.75,240.8,334.29,232.42,339.39Z" transform="translate(-0.48 -7.77)"/>
    <g>
      <polygon class="cls-9" points="82.75 406.29 129.32 406.29 138.19 334.24 74.45 334.24 82.75 406.29"/>
      <rect x="73.46" y="345.72" width="61.16" height="0.45"/>
    </g>
    <g>
      <path class="cls-3" d="M245.78,324l27.88,89.4h-2.94L254.63,372h0l-.44-1.13-10.12-26-.32-.84L242,339.5l-4.13-10.64,7.92-4.9Zm-67.39,45.75L175,378.33l-13.62,35h-2.94L186.36,324l7.92,4.9-5.06,13-4.95,12.73-5.44,14h0Z" transform="translate(-0.48 -7.77)"/>
      <path class="cls-6" d="M141.89,284.24l0,.06c5.92,31.38,31.69,52.9,63.27,52.87,32.83,0,54.49-13.84,55.18-28.17.74-15.5-19.82-25.45-44.58-29.9-5.1-26.2-25.1-46.65-45.25-46-20.53.7-33.44,23.1-28.83,50,.06.36.13.72.19,1.08Z" transform="translate(-0.48 -7.77)"/>
      <path id="people-shadow" class="cls-6" d="M197.25,336.71a69.08,69.08,0,0,0,7.93.46c32.83,0,54.49-13.84,55.18-28.17.74-15.5-19.82-25.45-44.58-29.9-7.25-27-24.46-35.35-37.15-30.91-30.44,10.62-11.33,70,25.92,76Z" transform="translate(-0.48 -7.77)"/>
      <path class="cls-3" d="M141.89,284.24l0,.06c5.92,31.38,31.69,52.9,63.27,52.87,32.83,0,54.49-13.84,55.18-28.17q0-.76,0-1.5c-22.81,7.85-52.82,16.38-78,10-43.51-11-39.29-60.82-39.29-60.84a56.9,56.9,0,0,0-1.36,26.48c.06.36.13.72.19,1.08Z" transform="translate(-0.48 -7.77)"/>
      <path class="cls-6" d="M260.42,307.65c-11.41,3.93-24.62,8-38.13,10.35s-27.34,2.86-40-.32c-14.56-3.68-23.8-11.69-29.64-20.74-11.67-18.07-9.79-40.28-9.79-40.3l.32.07s-1.87,22.11,9.73,40.08c5.8,9,15,16.93,29.43,20.58,12.57,3.17,26.34,2.63,39.83.31s26.69-6.41,38.09-10.33Z" transform="translate(-0.48 -7.77)"/>
    </g>
    <g>
      <path class="cls-6" d="M230.93,192.48l31.19,10.85-.4,3.83,16.95,38.11c14-.68,52.64,0,54.72,14.82L286,261.65l-14.07.47-9.54.31L256.67,255l-2.56,24.23c-10.38,5.22-39.53,12.73-66.61,7.59,2.7-29.78-27.15-70.42-9-81.25l24-11.69.18-7.24,4.51-.23a134.18,134.18,0,0,0-4.75-20.38c-7.75,1.06-9.22-12.17-4-12.94A118.25,118.25,0,0,0,193,138.86l5.13-3.57c-8.14-20.69,36.37-11.51,36.37-11.51s5.39-6.26,10.48,4.26c2.2,4.54,1.2,9-.64,12.66a16.93,16.93,0,0,0,2.82-13.44s7.16,13.38-7.72,20.18h0a126.45,126.45,0,0,1-4.06,33.77c-.61.62-4,1.4-8.28,1.39.12,1,.22,2,.31,2.82l3.52-.18Z" transform="translate(-0.48 -7.77)"/>
      <g>
        <path class="cls-10" d="M245.09,241.52l15.11-37.26,17,41.86c14-.22,52.61,1.7,54.2,16.61H260.31Z" transform="translate(-0.48 -7.77)"/>
        <g>
          <path class="cls-6" d="M229,192.76l31.23,11.5L252.36,280c-10.37,5-39.5,11.91-66.6,6.2,2.62-29.71-27.34-71-9.24-81.42l24-11.18.16-7.24,28.28-.85Z" transform="translate(-0.48 -7.77)"/>
          <path class="cls-8" d="M255.55,249.21,252.36,280c-10.37,5-39.5,11.91-66.6,6.2,2.23-25.24-19-58.81-14.41-74.75l15.07,7.88,17.79,33.07a68.47,68.47,0,0,0,7.85,3.18L240,228.06l4,6.93-16.51,24.08C237.29,260,248.17,258.35,255.55,249.21Z" transform="translate(-0.48 -7.77)"/>
        </g>
        <g id="hello">
          <path class="cls-3" d="M234.13,149.24a18.56,18.56,0,0,0,1.42-1.33h0c14.86-6.49,7.67-20,7.67-20a16.67,16.67,0,0,1-2.78,13.38c1.83-3.6,2.81-8.06.6-12.64-5.12-10.63-10.49-4.48-10.49-4.48S186,114.05,194.2,134.91l-5.12,3.45s5.89,12.8,6.78,20.48Z" transform="translate(-0.48 -7.77)"/>
          <g>
            <g>
              <path class="cls-11" d="M197.81,163.56a131.19,131.19,0,0,1,5.54,22.68l20.25-.61A97.26,97.26,0,0,0,222,175C220.1,166.25,197.81,163.56,197.81,163.56Z" transform="translate(-0.48 -7.77)"/>
              <path class="cls-12" d="M223.56,185.63A100.31,100.31,0,0,0,222,175c-1.5-7-16.17-10.13-21.89-11.09l-.37,1.71s2.18,14.22,12.8,20.36Z" transform="translate(-0.48 -7.77)"/>
              <path class="cls-11" d="M235.24,142.71s2,16.6-3.68,38.88c-1.82,1.82-27.8,4.53-32.08-16-9.92,2.44-10.8-17.17-1.78-12l2.51-.44s.71-3.79,1.17-7.8C201.38,145.34,224.53,148.16,235.24,142.71Z" transform="translate(-0.48 -7.77)"/>
              <path class="cls-13" d="M225.19,182.8c-8.49.27-22.65-2.53-25.71-17.19-9.92,2.44-10.8-17.17-1.78-12l2.51-.44s.71-3.79,1.17-7.8a115.9,115.9,0,0,0,21.5.37c.42,5,1,12,1.13,16.34,0,0,6.27.76.19,4C224.2,166.08,225.07,174.19,225.19,182.8Z" transform="translate(-0.48 -7.77)"/>
              <path class="cls-12" d="M235.24,142.71c-7,6-28.31,4.59-32.66,4.07L200.79,153l-.58.1s.71-3.79,1.17-7.8C201.38,145.34,224.53,148.16,235.24,142.71Z" transform="translate(-0.48 -7.77)"/>
              <path class="cls-12" d="M199.48,165.61c-6.31,1.55-9-5.81-7.74-10.06,3.67-1.2,7.12,3.4,7.12,3.4-4.3-.88-3,4.65.62,4.86Z" transform="translate(-0.48 -7.77)"/>
            </g>
            <path class="cls-3" d="M211,149.5a7.72,7.72,0,1,1-5.47,2.26A7.68,7.68,0,0,1,211,149.5Zm19-.29a7.72,7.72,0,1,1-5.47,2.26,7.74,7.74,0,0,1,5.47-2.26Zm5.26,2.47a7.44,7.44,0,1,0,2.18,5.26,7.41,7.41,0,0,0-2.18-5.26Zm-19,.29a7.44,7.44,0,1,0,2.18,5.26A7.41,7.41,0,0,0,216.21,152Z" transform="translate(-0.48 -7.77)"/>
          </g>
          <path id="eye_eye-right" data-name="eye eye-right" class="cls-3" d="M229.24,157.26a1,1,0,1,0,1.08-.92A1,1,0,0,0,229.24,157.26Z" transform="translate(-0.48 -7.77)"/>
          <path id="eye_eye-left" data-name="eye eye-left" class="cls-3" d="M209.93,157.34a1,1,0,1,0,1-1A1,1,0,0,0,209.93,157.34Z" transform="translate(-0.48 -7.77)"/>
        </g>
        <g>
          <g>
            <g>
              <path class="cls-14" d="M259.64,195.54l16.09-2.45a1.79,1.79,0,0,1,2.11,2.12l-3.1,27.91a3.4,3.4,0,0,1-2.67,2.85L256,228.41a1.8,1.8,0,0,1-2.12-2.12l3.11-27.9A3.38,3.38,0,0,1,259.64,195.54Z" transform="translate(-0.48 -7.77)"/>
              <path class="cls-15" d="M275.84,213.24l-1.1,9.88a3.4,3.4,0,0,1-2.67,2.85L256,228.41a1.8,1.8,0,0,1-2.12-2.12l.61-5.4Z" transform="translate(-0.48 -7.77)"/>
              <path class="cls-3" d="M262.88,198.86a1.51,1.51,0,0,1,1.53,1.82,2.23,2.23,0,0,1-2.11,1.82,1.52,1.52,0,0,1-1.53-1.82A2.23,2.23,0,0,1,262.88,198.86Z" transform="translate(-0.48 -7.77)"/>
              <path class="cls-6" d="M260.29,195.79l16.09-2.45a1.79,1.79,0,0,1,2.11,2.12l-.1.94h-.05a1.8,1.8,0,0,0-2.12-2.13l-16.09,2.45a3.42,3.42,0,0,0-2.56,2.32l.05-.41A3.38,3.38,0,0,1,260.29,195.79Z" transform="translate(-0.48 -7.77)"/>
            </g>
            <polygon class="cls-11" points="239.5 211.86 252.74 199.24 255.66 216.91 246.59 221.79 239.5 211.86"/>
            <path class="cls-12" d="M253.21,207l9.77-.94,1,4.53-2.2,1.57.67,8.2-6.27,4.32L253.21,207ZM240,219.64l.92-.87a16.49,16.49,0,0,0,9.69,8.91l-3.52,1.89Z" transform="translate(-0.48 -7.77)"/>
          </g>
          <g>
            <path class="cls-6" d="M171.86,209.87c-15.05,9.95,12.45,67.38,24.91,61.43C211.55,264.25,186.91,199.92,171.86,209.87Z" transform="translate(-0.48 -7.77)"/>
            <path class="cls-8" d="M193.5,271.56a4.79,4.79,0,0,0,3.27-.26c6.4-3.06,5.4-16.86,1-30.72-7.67,4-11.44,13.58-8.53,23.07A22.57,22.57,0,0,0,193.5,271.56Z" transform="translate(-0.48 -7.77)"/>
            <path class="cls-6" d="M240,219.64l7.15,9.9s-31.37,34.78-43.7,39.9c-6,2.51-9.41.77-11-2.51C182,244.41,225.43,228,240,219.64Z" transform="translate(-0.48 -7.77)"/>
            <path class="cls-16" d="M190.81,258.51c4.06-14.06,17.58-21.41,32-29.27,4.73-2.56,9.55-5.19,14.19-8.12-.27-.44-1.2-2.13.09-3,1.48-.94,8.84,8.94,8.86,9l-.19.15s-7.25-9.74-8.54-8.92,0,2.71,0,2.72l.07.1-.11.07c-4.66,3-9.53,5.6-14.3,8.19-14.41,7.83-27.89,15.16-31.92,29.13Z" transform="translate(-0.48 -7.77)"/>
          </g>
        </g>
        <g>
          <g>
            <path class="cls-3" d="M298,286c8.32,22.29,7.69,109.44,7.69,109.44l-19.89.12s-17.49-52.21-19.2-80.11c0,0-37.14,9.34-54-5.62-7.69-6.82-4.09-13.25-2.09-22.08C224.15,280.8,271.26,274.54,298,286Z" transform="translate(-0.48 -7.77)"/>
            <path class="cls-3" d="M285.83,395.58l-3.42,16H330.3s3.81-13.83-24.58-16.16Z" transform="translate(-0.48 -7.77)"/>
          </g>
          <g>
            <path class="cls-4" d="M181.84,301.7c1.59,11.22,18.43,18.68,36.09,16.12,1.77,29.75,6.72,53.76,14.85,80.64h20.75l-4.46-113.61C232.37,269.11,177,268,181.84,301.7Z" transform="translate(-0.48 -7.77)"/>
            <path class="cls-16" d="M221.89,353.16a361.59,361.59,0,0,0,10.89,45.3h20.75l-2.15-54.85c-.21-1.18-.42-2.39-.61-3.65C245.13,303.36,221.89,353.15,221.89,353.16Z" transform="translate(-0.48 -7.77)"/>
            <path class="cls-16" d="M253.53,398.46s9.72,2.56,10,15.61H229.12c-.43-5.09,0-9,3.66-15.61Z" transform="translate(-0.48 -7.77)"/>
            <path class="cls-3" d="M181.89,293.73c2.46,6.49,11.23,14.23,41.11,6.32l.29-.08v.3c0,.18.63,63,11.45,95.18l-.45.15c-10.43-31.05-11.41-90.36-11.47-95-28.91,7.59-38.2.55-41.09-5.93C181.78,294.34,181.83,294,181.89,293.73Z" transform="translate(-0.48 -7.77)"/>
          </g>
        </g>
      </g>
    </g>
  </g>
  <g>
    <polygon class="cls-6" points="56.77 254.96 455.14 254.96 454.72 260.21 56.36 260.21 56.77 254.96"/>
    <rect class="cls-17" x="67.46" y="260.21" width="375.62" height="4.2"/>
    <g>
      <polygon class="cls-11" points="404.47 264.41 423.59 405.1 418.39 405.1 390.08 264.41 404.47 264.41"/>
      <polygon class="cls-11" points="109.98 264.41 90.86 405.1 96.07 405.1 124.38 264.41 109.98 264.41"/>
    </g>
    <g>
      <polygon class="cls-4" points="404.47 264.41 406.3 277.85 392.39 275.91 390.08 264.41 404.47 264.41"/>
      <polygon class="cls-4" points="109.98 264.41 108.72 273.7 121.99 276.29 124.38 264.41 109.98 264.41"/>
    </g>
    <path class="cls-3" d="M101.36,414.07H74.06v-2.38h27.3v2.38Zm54.89-8.87a9.25,9.25,0,0,1,9,6.49H397.65a4.13,4.13,0,0,1,8.19,0h0a7.37,7.37,0,0,1,14.74,0h8.12v2.38H111v-2.38h36.25a9.25,9.25,0,0,1,9-6.49Zm300.12,8.87H436.84v-2.38h19.53Z" transform="translate(-0.48 -7.77)"/>
    <g>
      <path class="cls-3" d="M396.5,399.78a1,1,0,1,1-1,1,1,1,0,0,1,1-1ZM153.84,346.86a1.26,1.26,0,1,1-1.26,1.26,1.25,1.25,0,0,1,1.26-1.26ZM364,403.81a1.76,1.76,0,1,1-1.77,1.76A1.76,1.76,0,0,1,364,403.81Z" transform="translate(-0.48 -7.77)"/>
      <path class="cls-6" d="M408.72,225.65a1.39,1.39,0,1,0-1.38-1.38A1.38,1.38,0,0,0,408.72,225.65Z" transform="translate(-0.48 -7.77)"/>
    </g>
  </g>
  <g>
    <g>
      <path class="cls-6" d="M107.8,198.15l24.73,1.45-.79,4.73a7.43,7.43,0,0,1,3.73,1.72,7.55,7.55,0,0,1,2.44,4.21,8.3,8.3,0,0,1,.17,1.5,9.48,9.48,0,0,1-8.09,9.43,8.48,8.48,0,0,1-1.11.07l-.71,4.21-19.49-1.14-.88-26.18Zm23.75,7.27-2.48,14.72q.35,0,.69-.06A8.49,8.49,0,0,0,137,211.7a6.71,6.71,0,0,0-.15-1.3,6.2,6.2,0,0,0-5.27-5Z" transform="translate(-0.48 -7.77)"/>
      <path class="cls-4" d="M105.37,199h24.78l-.52,4.76a7.43,7.43,0,0,1,6.51,5.56,8.15,8.15,0,0,1,.26,1.49,9.49,9.49,0,0,1-7.53,9.88,7,7,0,0,1-1.1.14l-.46,4.25H107.78L105.37,199Zm24.14,5.86-1.61,14.84c.22,0,.45-.06.68-.1a8.45,8.45,0,0,0,6.7-8.79,6.45,6.45,0,0,0-.22-1.28,6.23,6.23,0,0,0-5.55-4.67Z" transform="translate(-0.48 -7.77)"/>
      <path class="cls-16" d="M105.44,199.79l24.78,1.34-.15,1.32c-7.64.23-17.06.51-24.32.71Z" transform="translate(-0.48 -7.77)"/>
      <path class="cls-4" d="M98.91,214.5a1.7,1.7,0,1,0-1.7-1.7A1.7,1.7,0,0,0,98.91,214.5Z" transform="translate(-0.48 -7.77)"/>
    </g>
    <g>
      <path class="cls-3" d="M158.56,262.73H78.83a6.58,6.58,0,0,1-6.57-6.56h0a6.59,6.59,0,0,1,6.57-6.57h79.73v2H81.05a4.55,4.55,0,0,0-4.54,4.54h0a4.55,4.55,0,0,0,4.54,4.54h77.51Z" transform="translate(-0.48 -7.77)"/>
      <path class="cls-8" d="M155,260.71h-74a4.55,4.55,0,0,1-4.54-4.54h0a4.55,4.55,0,0,1,4.54-4.54h74Z" transform="translate(-0.48 -7.77)"/>
      <path class="cls-10" d="M77.88,259.41a4.52,4.52,0,0,1-1.37-3.24h0a4.55,4.55,0,0,1,4.54-4.54h74v1.57H82.1a4.55,4.55,0,0,0-4.54,4.54h0A4.43,4.43,0,0,0,77.88,259.41Z" transform="translate(-0.48 -7.77)"/>
    </g>
    <g>
      <path class="cls-7" d="M153.52,249.6H73.79A6.58,6.58,0,0,1,67.22,243h0a6.58,6.58,0,0,1,6.57-6.57h79.73v2H105.31a4.57,4.57,0,0,0-4.55,4.55h0a4.56,4.56,0,0,0,4.55,4.54h48.21Z" transform="translate(-0.48 -7.77)"/>
      <path class="cls-8" d="M150,247.58H105.31a4.56,4.56,0,0,1-4.55-4.54h0a4.57,4.57,0,0,1,4.55-4.55H150Z" transform="translate(-0.48 -7.77)"/>
      <path class="cls-10" d="M102.13,246.28a4.56,4.56,0,0,1-1.37-3.24h0a4.57,4.57,0,0,1,4.55-4.55H150v1.58H106.36a4.56,4.56,0,0,0-4.55,4.54h0A4.64,4.64,0,0,0,102.13,246.28Z" transform="translate(-0.48 -7.77)"/>
    </g>
    <g>
      <path class="cls-4" d="M79.68,236.47h68.91a7,7,0,0,0,6.63-5.68h0a4.67,4.67,0,0,0-4.71-5.67H81.61l-.29,1.75h67a3.23,3.23,0,0,1,3.26,3.92h0a4.86,4.86,0,0,1-4.59,3.93H80Z" transform="translate(-0.48 -7.77)"/>
      <path class="cls-8" d="M83,234.72H147a4.86,4.86,0,0,0,4.59-3.93h0a3.23,3.23,0,0,0-3.26-3.92H84.36Z" transform="translate(-0.48 -7.77)"/>
      <path class="cls-10" d="M149.89,233.6a4.75,4.75,0,0,0,1.66-2.81h0a3.23,3.23,0,0,0-3.26-3.92H84.36l-.24,1.36h63a3.24,3.24,0,0,1,3.26,3.93h0A4.23,4.23,0,0,1,149.89,233.6Z" transform="translate(-0.48 -7.77)"/>
    </g>
  </g>
  <g>
    <g>
      <path class="cls-3" d="M397,257.63v-.49h0c-6.07.67-10.73,1.47-12.51,1.8a2.81,2.81,0,0,0-2.63-1.83H371.66v5.62h10.21a2.81,2.81,0,0,0,2.81-2.81,3,3,0,0,0-.05-.52C386.44,259.07,391,258.28,397,257.63Z" transform="translate(-0.48 -7.77)"/>
      <path class="cls-3" d="M444.41,395.36c-36.17.39-50.66-4.93-50.79-17.37-.15-13.4,16.18-35.09,40-66.75l4.67-6.21c13.56-18,15.74-29.67,11.73-37h-.78c4.2,7.24,2.2,18.75-11.33,36.75L433.26,311c-23.89,31.73-40.26,53.48-40.12,67,.14,12.76,14.77,18.23,51.29,17.84h0c.08,0,22.93-2.3,6.28,13.82l.34.35C468.72,393,444.79,395.33,444.41,395.36Z" transform="translate(-0.48 -7.77)"/>
    </g>
    <polygon class="cls-3" points="326.03 254.96 269.75 254.96 270.1 251.71 326.38 251.71 326.03 254.96"/>
    <path class="cls-8" d="M294.29,262.73h84a2.67,2.67,0,0,0,2.58-2.31l6.84-56.64a2,2,0,0,0-2-2.31h-84a2.68,2.68,0,0,0-2.58,2.31l-6.84,56.64A2,2,0,0,0,294.29,262.73Z" transform="translate(-0.48 -7.77)"/>
    <path class="cls-10" d="M294.29,262.73h84a2.68,2.68,0,0,0,2.56-2.16l-87.77-7-.83,6.87A2,2,0,0,0,294.29,262.73Z" transform="translate(-0.48 -7.77)"/>
    <path class="cls-3" d="M301.69,201.47a2.68,2.68,0,0,0-2.59,2.31l-6.84,56.64a2,2,0,0,0,2,2.31Z" transform="translate(-0.48 -7.77)"/>
    <path class="cls-6" d="M342.07,226.93a5,5,0,0,1,5,6,7.31,7.31,0,0,1-6.95,6,5,5,0,0,1-5-6A7.31,7.31,0,0,1,342.07,226.93Z" transform="translate(-0.48 -7.77)"/>
    <path class="cls-6" d="M378.74,264.93a2.65,2.65,0,0,0,1.34-1.86l9.19-56.31a2,2,0,0,0-1.93-2.4l-83.93-3.49a2.68,2.68,0,0,0-2.68,2.16,2.61,2.61,0,0,1,1.34-.33L386,206.2a2,2,0,0,1,1.94,2.39l-9.19,56.31Z" transform="translate(-0.48 -7.77)"/>
  </g>
</svg>
